<?xml version="1.0" encoding="UTF-8"?>
<svg id="Layer_2" xmlns="http://www.w3.org/2000/svg" xmlns:xlink="http://www.w3.org/1999/xlink" viewBox="0 0 691.25 737.3">
  <defs>
    <style>
      .cls-1 {
        fill: none;
      }

      .cls-2 {
        fill: #623b16;
      }

      .cls-3 {
        fill: #87582b;
      }

      .cls-4 {
        fill: #80562e;
      }

      .cls-5 {
        fill: #9c6e41;
      }

      .cls-6 {
        fill: #ffb4bb;
      }

      .cls-7 {
        clip-path: url(#clippath);
      }
    </style>
    <clipPath id="clippath">
      <rect class="cls-1" width="691.25" height="737.3"/>
    </clipPath>
  </defs>
  <g id="Toast">
    <g id="Burnt">
      <g class="cls-7">
        <path class="cls-2" d="M677.7,131.66c13.3,33.47,10.22,70.63,2.86,105.13-5.46,23.1-21.19,41.5-34.55,60.46,8.56,102.16,11.38,204.74,12.32,307.23.06,30.02-.93,60.1-4.85,89.89-1.33,20.07-10.61,42.68-34.86,37.44-137.39-17.36-276.26-22.34-414.67-22.12-37.69,0-75.37.2-113.05-.54-29.43-.72-90.65,3.87-71.98-43.38,4.58-15.22,8.82-30.59,12.69-46.08,3.6-17.32,6.91-32.54,9.91-50.66,5.57-33.84,10.64-67.82,14.55-101.93,4.06-60.2,1.17-120.72-10.47-180.03C.7,258.06,2.43,211.71,23.45,167.74,70.11,77.32,202.04,37.18,295.05,14.7c60.25-14.45,123-11.62,183.6-.62,77.04,11.63,160.7,45.59,199.05,117.59ZM633.9,228.97c6.31-26.18,9.93-55.17-.32-80.79-24.36-38.95-67.2-62.11-109.76-76.2-47.7-13.02-97.3-20.02-146.75-20.41-38.22.64-75.75,8.88-112.41,19.23-60.61,17.76-122.9,39.96-171.13,81.79-15.19,13.72-27.8,30.49-33.46,50.39-3.45,11.73-8.01,26.11,1.5,36.22,6.25,5.92,14.92,11.64,21.49,18.13.19.18.38.37.56.56,1.66,1.68,3.17,3.41,4.46,5.21,3.32,4.64,5.14,9.74,4.18,15.59-.06.35-.13.71-.21,1.07-.04.18-.08.36-.13.55-.08.34-.18.68-.28,1.03-.06.2-.12.4-.19.61-.06.18-.12.37-.19.55-.06.18-.13.36-.2.54-.07.2-.15.39-.23.59-.08.19-.16.38-.24.57h0s0,.01,0,.02c.09.23.19.45.29.66.07.16.14.32.21.47.81,2.21,1.57,4.42,2.28,6.64.32.99.63,1.99.93,2.98.59,1.96,1.15,3.93,1.67,5.9.38,1.41.73,2.83,1.07,4.25.36,1.51.71,3.03,1.03,4.55.32,1.49.62,2.99.91,4.48.03.17.06.34.09.51.29,1.54.57,3.07.82,4.62.03.16.05.32.08.48.19,1.16.37,2.31.54,3.47.02.11.03.21.05.32.41,2.84.78,5.68,1.09,8.53.02.22.05.44.07.66.36,3.35.65,6.71.89,10.08.09,1.3.17,2.61.25,3.91.23,4,.38,8,.46,12.02.02.7.03,1.4.04,2.1.06,3.58.07,7.16.04,10.75-.01,1.21-.03,2.43-.05,3.64-.02,1.27-.04,2.55-.07,3.82-.02.63-.03,1.27-.05,1.91-.01.64-.03,1.27-.05,1.91,0,0,0,0,0,.01.04,1.07.07,2.13.11,3.2.03,1.02.06,2.03.09,3.05.02.54.03,1.08.04,1.62.06,2.16.11,4.31.14,6.47.03,1.64.06,3.27.08,4.91.02,1.06.03,2.12.04,3.18.02,1.08.03,2.15.04,3.23-1.89,74.64-10.96,149.18-26.68,222.18-.26.85-.5,1.73-.72,2.64-.07.28-.14.56-.2.84-.06.25-.11.5-.17.75-.28,1.29-.54,2.62-.78,3.99-.06.33-.11.66-.17.99-.07.43-.14.86-.21,1.3-.06.38-.12.76-.18,1.15-.06.39-.12.77-.18,1.16-.18,1.2-.35,2.41-.52,3.63-.1.71-.2,1.42-.3,2.13-.1.71-.2,1.43-.3,2.15-.05.36-.11.72-.16,1.08-.03.21-.06.41-.09.62-.08.51-.15,1.03-.23,1.54-.05.36-.11.72-.17,1.08-.17,1.08-.35,2.16-.54,3.23-.06.36-.12.71-.19,1.07-.05.3-.11.59-.17.89-.02.1-.03.2-.05.29-.06.32-.12.63-.19.95-.07.35-.14.7-.22,1.05,3.22.12,6.45.22,9.67.32,1.56.05,3.13.09,4.69.13,1.32.04,2.65.07,3.97.11,1.15.03,2.3.05,3.46.08,1.83.04,3.66.09,5.48.12,1.83.04,3.66.07,5.48.11,3.45.06,6.89.12,10.34.17.21,0,.42,0,.63,0,1.74.03,3.48.05,5.22.07,1.24.02,2.48.03,3.73.04,1.6.02,3.2.04,4.79.05,6.39.07,12.77.11,19.15.16,153.43-.49,307.02,2.77,459.72,18.82,8.9-97.34.43-195.4-2.2-292.89-.95-24.37-3.04-48.66-4.86-72.97-.18-13.5-5.57-28.52,2.5-40.69,10.14-16,23.98-30.01,30.81-47.89Z"/>
        <path class="cls-3" d="M633.57,148.18c10.25,25.62,6.63,54.61.32,80.79-6.83,17.88-20.67,31.9-30.81,47.89-8.07,12.17-2.68,27.19-2.5,40.69,1.82,24.31,3.91,48.6,4.86,72.97,2.64,97.49,11.1,195.56,2.2,292.89-152.71-16.05-306.29-19.32-459.72-18.82-3.19-.02-6.38-.05-9.57-.07-3.19-.02-6.38-.05-9.58-.09-2.84-.03-5.68-.06-8.52-.09-1.74-.02-3.48-.04-5.22-.07-.21,0-.42,0-.63,0-1.72-.02-3.45-.05-5.17-.08-1.73-.03-3.45-.06-5.17-.09-1.83-.03-3.66-.07-5.48-.11-2.98-.06-5.96-.13-8.94-.2-1.32-.04-2.65-.07-3.97-.11-1.59-.04-3.19-.09-4.79-.14-3.19-.09-6.38-.2-9.57-.32.3-1.39.57-2.81.82-4.24.09-.51.18-1.03.27-1.54,0-.04.02-.08.02-.12.09-.52.17-1.04.25-1.56.34-2.16.65-4.33.95-6.47.1-.71.2-1.43.3-2.13.17-1.22.34-2.43.52-3.63.05-.39.11-.78.18-1.16.06-.39.12-.77.18-1.15.29-1.79.59-3.52.93-5.18.06-.29.12-.58.18-.87.07-.33.14-.66.22-.98.06-.29.13-.57.2-.84.05-.23.11-.45.17-.68.05-.21.11-.42.17-.63.04-.17.09-.34.14-.5.08-.28.16-.56.24-.84,15.72-72.99,24.8-147.53,26.68-222.18-.02-2.13-.05-4.27-.08-6.41-.02-1.41-.04-2.82-.07-4.23-.01-.73-.03-1.45-.04-2.18-.02-.98-.04-1.96-.06-2.94-.08-3.3-.17-6.6-.29-9.89.02-.63.04-1.27.05-1.91.05-1.91.09-3.82.12-5.72.02-.98.03-1.97.04-2.96.02-2.49.03-4.98.02-7.46,0-.38,0-.76-.01-1.13,0-.37,0-.74-.01-1.11,0-.5-.01-1.01-.02-1.51-.01-.77-.02-1.54-.04-2.32-.02-.97-.04-1.94-.07-2.91,0-.03,0-.06,0-.09-.03-1-.06-2.01-.1-3.01-.04-1-.08-2-.13-3-.05-1-.1-2-.16-3-.04-.65-.07-1.3-.12-1.95-.04-.65-.08-1.3-.13-1.96-.06-.84-.12-1.68-.19-2.52,0-.04,0-.07,0-.11-.06-.8-.13-1.61-.2-2.41,0-.06,0-.12-.02-.19-.07-.78-.14-1.55-.22-2.33-.08-.84-.16-1.68-.26-2.52-.02-.22-.05-.44-.07-.66-.07-.68-.15-1.36-.23-2.04-.01-.08-.02-.15-.03-.23-.25-2.09-.52-4.17-.83-6.25-.11-.76-.23-1.52-.34-2.28-.06-.36-.11-.71-.17-1.07-.05-.31-.1-.62-.16-.94-.12-.77-.26-1.54-.39-2.31,0,0,0-.02,0-.02-.14-.76-.27-1.52-.42-2.28-.1-.54-.21-1.09-.31-1.63-.15-.75-.3-1.5-.46-2.24-.07-.38-.16-.75-.24-1.12-.12-.55-.24-1.11-.36-1.66-.01-.05-.02-.11-.04-.16-.07-.31-.14-.62-.21-.93-.14-.62-.29-1.25-.44-1.87-.16-.68-.33-1.37-.5-2.05-.18-.71-.36-1.41-.55-2.12-.13-.49-.26-.98-.39-1.48-.11-.38-.21-.76-.32-1.14-.06-.22-.12-.44-.19-.66-.11-.38-.22-.76-.33-1.14-.14-.49-.29-.98-.44-1.47-.1-.35-.21-.7-.32-1.04-.11-.37-.22-.73-.34-1.09-.56-1.78-1.15-3.55-1.77-5.32-.11-.31-.22-.62-.33-.93-.15-.42-.3-.83-.45-1.25-.17-.37-.34-.76-.5-1.15.08-.19.16-.38.24-.57.07-.16.13-.32.2-.48.16-.4.3-.8.43-1.2.06-.18.12-.36.17-.53.28-.92.49-1.83.64-2.71.03-.18.05-.35.08-.53.03-.18.05-.36.07-.54.02-.17.04-.34.05-.5.04-.52.06-1.03.06-1.53,0-.24,0-.48-.02-.72,0-.22-.02-.45-.04-.66,0-.04,0-.09-.01-.12-.01-.14-.03-.29-.04-.43-.01-.12-.02-.24-.04-.36-.02-.18-.05-.36-.07-.54-.03-.18-.05-.35-.09-.52-.01-.08-.03-.16-.05-.24-.04-.19-.08-.38-.12-.57,0-.02,0-.03-.01-.04-.05-.23-.11-.45-.17-.67,0-.03-.02-.06-.02-.09-.05-.18-.11-.37-.16-.55,0-.03-.01-.05-.02-.08-.06-.19-.12-.38-.18-.56,0-.02-.02-.04-.02-.06-.07-.22-.16-.44-.24-.65,0-.02-.02-.04-.02-.06-.08-.2-.16-.39-.24-.59-.09-.21-.18-.43-.29-.64-.1-.21-.2-.43-.31-.64,0-.01-.01-.03-.02-.04-.31-.62-.65-1.23-1.02-1.84-.12-.21-.25-.41-.39-.61-.13-.2-.26-.41-.4-.61-.32-.48-.67-.95-1.02-1.42-.13-.17-.27-.34-.4-.52-.16-.2-.32-.41-.49-.61-.22-.27-.44-.54-.68-.8-.16-.19-.32-.37-.49-.56-.18-.21-.38-.42-.57-.62-.2-.22-.41-.43-.62-.65-.2-.21-.41-.42-.61-.63-.99-1-2.03-1.99-3.11-2.96-.22-.2-.44-.39-.66-.59-1.56-1.37-3.18-2.71-4.82-4.04-.4-.32-.8-.64-1.21-.96-2.19-1.75-4.39-3.46-6.5-5.17-.38-.31-.76-.62-1.14-.93-1.63-1.34-3.18-2.69-4.61-4.04-9.51-10.11-4.95-24.48-1.5-36.22,5.66-19.9,18.28-36.67,33.46-50.39,48.23-41.82,110.52-64.02,171.13-81.79,36.66-10.35,74.18-18.59,112.41-19.23,49.45.39,99.06,7.39,146.75,20.41,42.56,14.09,85.4,37.25,109.76,76.2Z"/>
        <path class="cls-3" d="M601.72,687.86c-10.68.37-19.71-6.18-30.29-6.63-23.28-2.5-46.75-3.66-70.11-5.54-29.03-2.17-58.1-4.04-87.14-6.01-33.46-1.72-66.99.55-100.48-.13-16.67-.46-33.27.19-49.85,1.93-16.83.8-33.7-.09-50.53,1.06-20.77.91-41.56-1.52-62.33-.12-18.36,1.66-32.54,2.7-49.96,3.47-5.28.54-10.43,1.95-15.77,2.1-18.08-.24-22.83-18.15-13.53-31.72,2.56-16.06,6.1-31.96,8.67-48.03,8.8-48.44,17.88-97.37,16.7-146.79.1-47.77-5.09-95.28-7.26-142.96-2.27-17.22,2.26-33.74,4.53-50.67.21-5.2-1.37-13.33,5.99-13.63,4.08,0,6.81,4.08,5.81,7.95-.37,7.09-.64,14.22-.22,21.31,1.57,14.61,5.81,28.75,8.57,43.15,7.46,57.5,12.02,115.87,10.93,173.91-2.64,51.65-9.81,103.05-20.38,153.66,21.59.23,43.07-2.23,64.65-2.23,22.63.46,45.19-.41,67.78-1.75,18.35.08,36.42-3.16,54.7-4.15,22.41-.9,44.85-.95,67.25-2.12,44.63-2.98,89.23.78,133.81,2.76,29.08,1.76,58.33.91,87.31,3.68-4.95-32.44,4.03-64.16,5.98-96.42,1.34-25.89-.19-51.76-3.14-77.48-4.5-36.63-5.26-73.73-11.47-110.13-2.56-10.29-5.48-20.49-7.96-30.8-3.3-11.76-9.64-25.2-.54-36.03,13.46-17.2,39.4-7.71,42.76,12.79,5.95,21.89,12.7,43.77,15.05,66.42,1.83,18.35,3.22,36.74,4.4,55.14,2.26,34.1,7.16,68.11,5.74,102.35,0,28.59-6.04,56.57-10.39,84.66-.33,11.12-.09,22.25,1.59,33.25,4.42,18.67,4.09,43.12-20.87,43.75Z"/>
        <path class="cls-3" d="M548.49,416.95c.26-50.57,11.5-100.81,28.75-148.18,11.11-24.19,31.67-47.81,25.41-76.16-2.8-12.12-3.71-25.12-10.7-35.77-15.02-23.52-39.86-36.88-64.11-49.02-23.6-15.09-52.07-17.45-78.78-23.62-27.64-5.32-56.12-3.49-84.11-3-32.6,2.25-64.15,10.85-95.44,19.79-21.36,5.2-41.91,12.75-62.07,21.46-23.09,8.29-45.31,18.78-65.7,32.52-17.44,11.53-33.46,24.99-48.47,39.52-8.16,8.13-6.13,26.99-2.87,36.99,8.06,10.89,19.49,23.07,22.3,36.52,6.86,1.88,1.1,11.07-3.03,12.59-13.01,9.2-46.06-24.14-52.29-34.59-9.76-20.97-10.79-54.1,4.46-72.68,15.03-16.38,33.03-30.23,51.23-42.96,61.63-41.31,134.59-61.82,206.38-77.49,42.29-7.89,85.95-10.1,128.79-6.16,27.09,4.92,55.05,7.37,80.96,17.14,39.2,18.7,81.83,38.49,104.53,77.57,26.95,56.89,19.66,90.16-11.37,141.88-17.77,43.25-24.56,90.41-29.98,136.63-3.68,26.54-43.95,24.02-43.9-2.99Z"/>
        <path class="cls-5" d="M273.27,557.53c-.34.2-.67.4-1.01.6,2.21-.04,4.42-.08,6.63-.11-.76-.82-1.48-1.68-2.17-2.57-1.15.69-2.3,1.39-3.45,2.08ZM371.14,561.61c-1.1-.69-2.17-1.41-3.22-2.15-.06-.04-.12-.09-.18-.13-1.21.58-2.43,1.12-3.66,1.64,2.35.2,4.71.42,7.06.64ZM211.34,561.61c.7-.06,1.4-.11,2.1-.17-.21-.24-.41-.48-.61-.72-.49.32-.98.61-1.49.89ZM529.73,618.12c-45.37-8.56-91.48-5.88-137.36-7.58-49.77-4.99-99.71-7.46-149.67-4.27-102.87,7.32-123.98,28.35-107.27-93.16,5.47-49.99,6.1-100.34,10.37-150.42,1.41-26.74,8.32-52.95,8.9-79.7C24.25,151.57,299.35,105.88,387.12,97.31c61.52-5.78,127.82,2.47,176.96,42.94,38.1,26.6,49.48,78.61,30.02,120.08-18.73,35.63-33.98,52.8-39.37,95.38.74,57.25,4.56,114.47,3.57,171.73-.6,16.03-1.51,32.06-1.15,48.11,3.01,20.17-2.61,43.29-27.42,42.57Z"/>
        <path class="cls-4" d="M178.88,244.23c0-7.7,6.43-14.13,14.13-14.13s14.13,6.43,14.13,14.13-6.43,14.13-14.13,14.13-14.13-6.43-14.13-14.13Z"/>
        <path class="cls-4" d="M203.56,168.75c0-4.64,3.87-8.5,8.5-8.5s8.5,3.87,8.5,8.5-3.87,8.5-8.5,8.5-8.5-3.87-8.5-8.5Z"/>
        <path class="cls-4" d="M246.52,227.84c0-3.58,2.99-6.57,6.57-6.57s6.57,2.99,6.57,6.57-2.99,6.57-6.57,6.57-6.57-2.99-6.57-6.57Z"/>
        <path class="cls-4" d="M467.98,187.38c0-8.34,6.96-15.31,15.31-15.31s15.31,6.96,15.31,15.31-6.96,15.31-15.31,15.31-15.31-6.96-15.31-15.31Z"/>
        <path class="cls-4" d="M425.14,108.53c0-.93.78-1.71,1.71-1.71s1.71.78,1.71,1.71-.78,1.71-1.71,1.71-1.71-.78-1.71-1.71Z"/>
        <path class="cls-4" d="M366.28,273.64c0-4.77,3.98-8.76,8.76-8.76s8.76,3.98,8.76,8.76-3.98,8.76-8.76,8.76-8.76-3.98-8.76-8.76Z"/>
        <path class="cls-4" d="M415.21,106.29c0-2.15,1.8-3.95,3.95-3.95s3.95,1.8,3.95,3.95-1.8,3.95-3.95,3.95-3.95-1.8-3.95-3.95Z"/>
        <path class="cls-4" d="M212.99,466.58c0-4.83,4.03-8.86,8.86-8.86s8.86,4.03,8.86,8.86-4.03,8.86-8.86,8.86-8.86-4.03-8.86-8.86Z"/>
        <path class="cls-4" d="M161.95,567.68c0-12.81,10.69-23.5,23.5-23.5s23.5,10.69,23.5,23.5-10.69,23.5-23.5,23.5-23.5-10.69-23.5-23.5Z"/>
        <path class="cls-4" d="M327.02,536.88c0-3.58,2.99-6.57,6.57-6.57s6.57,2.99,6.57,6.57-2.99,6.57-6.57,6.57-6.57-2.99-6.57-6.57Z"/>
        <path class="cls-4" d="M482.04,423.32c0-8.39,7.01-15.4,15.4-15.4s15.4,7.01,15.4,15.4-7.01,15.4-15.4,15.4-15.4-7.01-15.4-15.4Z"/>
        <path class="cls-4" d="M288.59,364.65c0-2.48,2.06-4.54,4.54-4.54s4.54,2.07,4.54,4.54-2.07,4.54-4.54,4.54-4.54-2.06-4.54-4.54Z"/>
        <path class="cls-4" d="M467.3,606.89c0-7.65,6.39-14.04,14.04-14.04s14.04,6.39,14.04,14.04-6.39,14.04-14.04,14.04-14.04-6.39-14.04-14.04Z"/>
        <path class="cls-4" d="M527.03,555.35c0-4.09,3.41-7.5,7.5-7.5s7.5,3.41,7.5,7.5-3.41,7.5-7.5,7.5-7.5-3.41-7.5-7.5Z"/>
        <path d="M299.28,372.19c.05-.05.1-.1.15-.15.03.06.07.12.1.18-.08-.01-.17-.02-.25-.04Z"/>
        <path d="M241.08,406.71s0,0,0,0c.04,0,.09,0,.13,0-.01.02-.02.03-.04.04-.03-.01-.06-.02-.09-.04Z"/>
        <path d="M238.6,410.99c.17.09.34.18.52.26-.02.14-.04.28-.06.42-.16-.22-.31-.45-.46-.68Z"/>
        <path class="cls-6" d="M460.81,465.33c-8.02-3.99-10.88-14.58-6.24-22.19,11.49-18.24,56.6-13.03,43.53,14.26-6.4,9.64-27.99,16.32-37.29,7.93Z"/>
        <path class="cls-6" d="M213,471.42c-25.5-19.07,3.48-46.76,27.56-35.19,11.67,2.07,17.22,15.76,12.91,26.28-6.13,14.61-28.07,14.64-40.47,8.91Z"/>
        <path d="M364.77,451.95c-2.57-5.12-4.3-11.9-10.26-14.02-5.4-1.36-12.35-.97-16.58,3-2.48,2.56-3.12,5.92-4.23,9.12-1.88,3.43-7.12,3.77-9.42.61-1.3-1.68-1.43-3.75-.97-5.02,1.96-10.21,9.67-18.86,20.22-20.3,15.59-4.3,30.84,6.81,33.59,22.33,2.11,7.64-9.21,11.67-12.35,4.29Z"/>
        <path d="M461.69,417.01c-11.67-3.1-22.94-7.62-34.78-10.09-4.55-1.26-9.62.07-13.8-2.46-9.85-6.3-2.28-16.36,4.08-21.95,7.28-7.82,15.33-14.86,22.76-22.54,2.47-9.98,18.14-5.79,14.24,4.17-5.16,9.25-13.81,16.09-19.98,24.68,10.74,3.03,30.44,6.62,37.79,14.77,4.25,6.78-2.79,15.69-10.31,13.41Z"/>
        <path d="M242.61,415.64c-2.63-4.49-1.16-10.81,3.5-13.36,10.31-5.58,20.72-10.98,30.95-16.73-5.95-4.55-12.53-8.25-18.98-12.04-5.08-4.12-22.97-10.15-17.42-18.38,3.5-4.42,8.2-.82,11.53,1.78,3.64,2.44,7.53,4.45,11.39,6.51,10.16,6.84,47.84,15.62,29.64,32.05-8.33,6.14-17.6,10.88-26.24,16.57-7.17,4.6-17.75,14.06-24.37,3.6Z"/>
      </g>
    </g>
  </g>
</svg>