<?xml version="1.0" encoding="UTF-8"?>
<svg id="Layer_2" xmlns="http://www.w3.org/2000/svg" xmlns:xlink="http://www.w3.org/1999/xlink" viewBox="0 0 691.25 737.3">
  <defs>
    <style>
      .cls-1 {
        fill: none;
      }

      .cls-2 {
        fill: #edcda1;
      }

      .cls-3 {
        fill: #fff;
      }

      .cls-4 {
        fill: #fff9ef;
      }

      .cls-5 {
        fill: #f8ebd5;
      }

      .cls-6 {
        fill: #87582b;
      }

      .cls-7 {
        fill: #ffb4bb;
      }

      .cls-8 {
        clip-path: url(#clippath);
      }
    </style>
    <clipPath id="clippath">
      <rect class="cls-1" width="691.25" height="737.3"/>
    </clipPath>
  </defs>
  <g id="Toast">
    <g id="Raw">
      <g class="cls-8">
        <path class="cls-6" d="M147.93,664.58c153.43-.49,307.02,2.77,459.72,18.83,8.9-97.34.43-195.4-2.2-292.89-.95-24.37-3.04-48.66-4.86-72.97-.18-13.5-5.57-28.52,2.5-40.69,10.14-16,23.98-30.01,30.81-47.9,6.31-26.18,9.93-55.16-.32-80.79-24.36-38.96-67.2-62.11-109.76-76.2-47.69-13.02-97.3-20.02-146.75-20.41-38.22.64-75.75,8.88-112.41,19.23-60.61,17.76-122.9,39.97-171.13,81.79-15.19,13.72-27.8,30.49-33.46,50.39-3.45,11.74-8.01,26.11,1.51,36.22,14.59,13.82,42.31,26.52,25.92,50.46,8.16,74.82-1.04,150.01-9.6,224.39-4.52,49.78-9.64,99.37-17.66,148.72,29.2,1.29,58.48,1.61,87.7,1.81ZM618.62,731.81c-137.39-17.35-276.26-22.34-414.67-22.12-37.69,0-75.37.2-113.05-.54-29.43-.72-90.65,3.87-71.98-43.38,36.7-121.88,51.35-253.03,26.68-378.7C.7,258.06,2.43,211.71,23.45,167.74,70.11,77.33,202.05,37.18,295.05,14.7c60.25-14.45,123.01-11.63,183.6-.63,77.04,11.63,160.7,45.59,199.05,117.59,13.31,33.47,10.22,70.63,2.86,105.13-5.46,23.1-21.19,41.5-34.55,60.47,8.56,102.15,11.37,204.74,12.32,307.23.06,30.02-.93,60.1-4.85,89.89-1.33,20.08-10.61,42.68-34.87,37.44Z"/>
        <path class="cls-6" d="M44.67,689.15c-24.5-4.39-20.53-34.78-16.41-52.99,4.92-24.84,9.36-43.52,13.27-67.14,10.44-63.46,19.13-127.47,21.73-191.78.29-32.82,5.06-66.87-1.79-99.12-2.35-6.19,3.8-12.49,9.98-10.69,13.48,7.01,17.09,24.99,21.18,38.5,9.51,33.32,10.72,68.12,11.1,102.57-1.89,74.65-10.96,149.18-26.68,222.18-6.2,20.49-1.63,60.33-32.38,58.47Z"/>
        <path class="cls-6" d="M72.65,375.26c-15.16-14.26.59-74.7-7.74-96.94-2.44-3.55-1.36-8.48,2.66-10.26,7-2.82,13.25,3.87,17.39,8.74,12.26,21.25,9.8,47.86,11.6,71.61-.66,8.48,1.6,18.97-4.85,25.62-4.93,5.08-13.52,5.64-19.06,1.22Z"/>
        <path class="cls-6" d="M70.79,430.53c.56-36.08,5.94-71.91,5.71-108.02-.02-13.39-1.08-26.73-1.7-40.09.09-5.09-2.28-15.76,5.87-14.66,6.56,2.73,7.68,11.69,10.41,17.58,17.04,46.48,12.22,96.75,9.86,145.19-.07,19.66-30.1,19.69-30.14,0Z"/>
        <path class="cls-5" d="M633.58,148.18c10.25,25.62,6.63,54.61.32,80.79-6.83,17.88-20.67,31.9-30.81,47.89-8.07,12.17-2.68,27.19-2.5,40.69,1.82,24.31,3.91,48.6,4.86,72.97,2.64,97.49,11.1,195.56,2.2,292.89-152.71-16.05-306.29-19.32-459.72-18.82-25.53-.18-51.1-.44-76.62-1.37,2.39-11.17,3.05-23.67,5.74-32.54,15.72-72.99,24.8-147.53,26.68-222.18-.09-8.54-.24-17.1-.55-25.66.94-33.08-.61-66.16-12.1-97.52-.17-.37-.34-.76-.5-1.15,9-20.48-15.57-32.25-29.01-44.98-9.51-10.11-4.95-24.48-1.5-36.22,5.66-19.9,18.28-36.67,33.46-50.39,48.23-41.82,110.52-64.02,171.13-81.79,36.66-10.35,74.18-18.59,112.41-19.23,49.45.39,99.06,7.39,146.75,20.41,42.56,14.09,85.4,37.25,109.76,76.2Z"/>
        <path class="cls-4" d="M261.99,336.09c.6-1.33,1.21-2.66,1.85-3.98-.28-.02-.56-.04-.84-.06-1.27-.1-2.54-.28-3.8-.51.16,1.35.24,2.7.28,4.06.84.14,1.68.31,2.51.49ZM237.39,567.27c-.46.58-.93,1.14-1.4,1.7,8.5-.66,16.99-1.4,25.5-2.27.44-.04.87-.09,1.31-.13-.69-.53-1.37-1.08-2.03-1.65-7.65,1.81-15.53,2.87-23.35,2.32,0,0-.01.02-.02.03ZM170.34,633.17c-18.26-.69-37.35-14.33-37.09-33.9,1.33-16.12,8.33-31.14,11.1-47.04,6.14-39.55,8.29-80.06,5.96-120.03-1.55-21.53-4.25-42.94-6.09-64.44-3.14-24.07,1.48-49.03-5.99-72.34-5.25-41.34-30.97-46.7-27.63-76.85,13.34-57.66,118.85-83.27,168.56-101.2,57.69-19.47,119.63-30.91,179.89-16.83,59.39-4.14,121.37,44.62,123.36,105.74,1.12,20.45-8.95,38.62-13.85,57.89-3.03,26.18-.39,52.85.65,79.12,4.49,66.25,11.87,132.4,9.86,198.91-1.01,25.2,1.6,53.47-13.54,75.14-17.98,25.55-48.85,12.49-74.34,10.85-29.09-6.15-58.46-7.66-88.13-6.69-44.21-.52-88.4,1.44-132.41,5.57-33.36,2.32-66.87,8.05-100.33,6.1Z"/>
        <path class="cls-2" d="M215,121.01c0-3.57,2.98-6.55,6.55-6.55s6.55,2.98,6.55,6.55-2.98,6.55-6.55,6.55-6.55-2.98-6.55-6.55Z"/>
        <path class="cls-2" d="M176.46,201.53c.21-18.71,28.46-18.71,28.66,0-.21,18.71-28.46,18.71-28.66,0Z"/>
        <path class="cls-2" d="M245.44,199.19c0-3.99,3.33-7.32,7.32-7.32s7.32,3.33,7.32,7.32-3.33,7.32-7.32,7.32-7.32-3.33-7.32-7.32Z"/>
        <path class="cls-2" d="M239.05,414.91c0-7.96,6.64-14.6,14.6-14.6s14.6,6.64,14.6,14.6-6.64,14.6-14.6,14.6-14.6-6.64-14.6-14.6Z"/>
        <path class="cls-2" d="M127.29,570.21c0-11.03,9.2-20.23,20.23-20.23s20.23,9.2,20.23,20.23-9.2,20.23-20.23,20.23-20.23-9.2-20.23-20.23Z"/>
        <path class="cls-2" d="M330.05,599.78c0-4.24,3.54-7.78,7.78-7.78s7.78,3.54,7.78,7.78-3.54,7.78-7.78,7.78-7.78-3.54-7.78-7.78Z"/>
        <path class="cls-2" d="M174.51,629.56c0-4.47,3.73-8.2,8.2-8.2s8.2,3.73,8.2,8.2-3.73,8.2-8.2,8.2-8.2-3.73-8.2-8.2Z"/>
        <path class="cls-2" d="M510.51,315.32c0-2.99,2.5-5.48,5.48-5.48s5.48,2.5,5.48,5.48-2.5,5.48-5.48,5.48-5.48-2.5-5.48-5.48Z"/>
        <path class="cls-2" d="M441.28,437.77c0-12.15,10.14-22.29,22.29-22.29s22.29,10.14,22.29,22.29-10.14,22.29-22.29,22.29-22.29-10.14-22.29-22.29Z"/>
        <path class="cls-2" d="M501.54,156.38c0-5.22,4.36-9.59,9.59-9.59s9.59,4.36,9.59,9.59-4.36,9.59-9.59,9.59-9.59-4.36-9.59-9.59Z"/>
        <path class="cls-2" d="M440.81,93.24c0-2.32,1.94-4.27,4.27-4.27s4.27,1.95,4.27,4.27-1.95,4.27-4.27,4.27-4.27-1.95-4.27-4.27Z"/>
        <path class="cls-2" d="M403.44,230.42c0-2.23,1.86-4.09,4.09-4.09s4.09,1.86,4.09,4.09-1.86,4.09-4.09,4.09-4.09-1.86-4.09-4.09Z"/>
        <path class="cls-2" d="M531.07,560.98c0-5.33,4.45-9.79,9.79-9.79s9.79,4.45,9.79,9.79-4.45,9.79-9.79,9.79-9.79-4.45-9.79-9.79Z"/>
        <path d="M264.4,424.37c-48.73-2.21-36.38-77.78,9.35-71.15,44.09,10.67,38.52,72.64-9.35,71.15Z"/>
        <path d="M432.48,430.58c-18.84-3.49-34.28-24.36-31.94-43.39,3.7-20.76,26.57-38.22,47.68-32.25,20.74,5.65,34.87,30.44,26.94,50.89-6.57,15.95-25.71,26.66-42.68,24.75Z"/>
        <path class="cls-3" d="M441.49,380.01c0-4.85,4.05-8.89,8.89-8.89s8.89,4.05,8.89,8.89-4.05,8.89-8.89,8.89-8.89-4.05-8.89-8.89Z"/>
        <path class="cls-3" d="M454.91,397.42c0-2.47,2.06-4.53,4.53-4.53s4.53,2.06,4.53,4.53-2.06,4.53-4.53,4.53-4.53-2.06-4.53-4.53Z"/>
        <path class="cls-3" d="M266.68,378.9c0-6,5.02-11.02,11.02-11.02s11.02,5.02,11.02,11.02-5.02,11.02-11.02,11.02-11.02-5.02-11.02-11.02Z"/>
        <path class="cls-3" d="M281.13,397.89c0-3.02,2.52-5.54,5.54-5.54s5.54,2.52,5.54,5.54-2.52,5.54-5.54,5.54-5.54-2.52-5.54-5.54Z"/>
        <path class="cls-7" d="M460.81,465.33c-8.02-3.99-10.88-14.58-6.24-22.19,11.49-18.24,56.6-13.03,43.53,14.26-6.4,9.64-27.99,16.32-37.29,7.93Z"/>
        <path class="cls-7" d="M213,471.42c-25.5-19.07,3.48-46.76,27.56-35.19,11.67,2.07,17.22,15.76,12.91,26.28-6.13,14.61-28.07,14.64-40.47,8.91Z"/>
        <path d="M335.2,435.84c.15.05.3.1.46.15,0,0,.01,0,.02,0-.16-.05-.32-.1-.47-.16Z"/>
        <path d="M351.7,453.93c-8.64-.58-18.55-1.63-25.35-7.44-4.65-4.49,1.98-12.01,7.01-7.97,8.2,2.84,17.5,2.32,26.04,1.11,5-.43,12.01-3.46,14.64,2.7,3.01,11.78-14.62,11.5-22.33,11.6Z"/>
      </g>
    </g>
  </g>
</svg>