<?xml version="1.0" encoding="UTF-8"?>
<svg id="Layer_2" xmlns="http://www.w3.org/2000/svg" xmlns:xlink="http://www.w3.org/1999/xlink" viewBox="0 0 691.25 737.3">
  <defs>
    <style>
      .cls-1 {
        fill: none;
      }

      .cls-2 {
        fill: #d7b087;
      }

      .cls-3 {
        fill: #edcda1;
      }

      .cls-4 {
        fill: #fff;
      }

      .cls-5 {
        fill: #87582b;
      }

      .cls-6 {
        fill: #f9e4c6;
      }

      .cls-7 {
        fill: #ffb4bb;
      }

      .cls-8 {
        clip-path: url(#clippath);
      }
    </style>
    <clipPath id="clippath">
      <rect class="cls-1" width="691.25" height="737.3"/>
    </clipPath>
  </defs>
  <g id="Toast">
    <g id="Light">
      <g class="cls-8">
        <path class="cls-5" d="M147.93,664.58c153.43-.49,307.02,2.77,459.72,18.83,8.9-97.34.43-195.4-2.2-292.89-.95-24.37-3.04-48.66-4.86-72.97-.18-13.5-5.57-28.52,2.5-40.69,10.14-16,23.98-30.01,30.81-47.9,6.31-26.18,9.93-55.16-.32-80.79-24.36-38.96-67.2-62.11-109.76-76.2-47.69-13.02-97.3-20.02-146.75-20.41-38.22.64-75.75,8.88-112.41,19.23-60.61,17.76-122.9,39.97-171.13,81.79-15.19,13.72-27.8,30.49-33.46,50.39-3.45,11.74-8.01,26.11,1.51,36.22,14.59,13.82,42.31,26.52,25.92,50.46,8.16,74.82-1.04,150.01-9.6,224.39-4.52,49.78-9.64,99.37-17.66,148.72,29.2,1.29,58.48,1.61,87.7,1.81ZM618.62,731.81c-137.39-17.35-276.26-22.34-414.67-22.12-37.69,0-75.37.2-113.05-.54-29.43-.72-90.65,3.87-71.98-43.38,36.7-121.88,51.35-253.03,26.68-378.7C.7,258.06,2.43,211.71,23.45,167.74,70.11,77.33,202.05,37.18,295.05,14.7c60.25-14.45,123.01-11.63,183.6-.63,77.04,11.63,160.7,45.59,199.05,117.59,13.31,33.47,10.22,70.63,2.86,105.13-5.46,23.1-21.19,41.5-34.55,60.47,8.56,102.15,11.37,204.74,12.32,307.23.06,30.02-.93,60.1-4.85,89.89-1.33,20.08-10.61,42.68-34.87,37.44Z"/>
        <path class="cls-5" d="M44.67,689.15c-24.5-4.39-20.53-34.78-16.41-52.99,4.92-24.84,9.36-43.52,13.27-67.14,10.44-63.46,19.13-127.47,21.73-191.78.29-32.82,5.06-66.87-1.79-99.12-2.35-6.19,3.8-12.49,9.98-10.69,13.48,7.01,17.09,24.99,21.18,38.5,9.51,33.32,10.72,68.12,11.1,102.57-1.89,74.65-10.96,149.18-26.68,222.18-6.2,20.49-1.63,60.33-32.38,58.47Z"/>
        <path class="cls-5" d="M72.65,375.26c-15.16-14.26.59-74.7-7.74-96.94-2.44-3.55-1.36-8.48,2.66-10.26,7-2.82,13.25,3.87,17.39,8.74,12.26,21.25,9.8,47.86,11.6,71.61-.66,8.48,1.6,18.97-4.85,25.62-4.93,5.08-13.52,5.64-19.06,1.22Z"/>
        <path class="cls-5" d="M70.79,430.53c.56-36.08,5.94-71.91,5.71-108.02-.02-13.39-1.08-26.73-1.7-40.09.09-5.09-2.28-15.76,5.87-14.66,6.56,2.73,7.68,11.69,10.41,17.58,17.04,46.48,12.22,96.75,9.86,145.19-.07,19.66-30.1,19.69-30.14,0Z"/>
        <path class="cls-3" d="M633.58,148.18c10.25,25.62,6.63,54.61.32,80.79-6.83,17.88-20.67,31.9-30.81,47.89-8.07,12.17-2.68,27.19-2.5,40.69,1.82,24.31,3.91,48.6,4.86,72.97,2.64,97.49,11.1,195.56,2.2,292.89-152.71-16.05-306.29-19.32-459.72-18.82-25.53-.18-51.1-.44-76.62-1.37,2.39-11.17,3.05-23.67,5.74-32.54,15.72-72.99,24.8-147.53,26.68-222.18-.09-8.54-.24-17.1-.55-25.66.94-33.08-.61-66.16-12.1-97.52-.17-.37-.34-.76-.5-1.15,9-20.48-15.57-32.25-29.01-44.98-9.51-10.11-4.95-24.48-1.5-36.22,5.66-19.9,18.28-36.67,33.46-50.39,48.23-41.82,110.52-64.02,171.13-81.79,36.66-10.35,74.18-18.59,112.41-19.23,49.45.39,99.06,7.39,146.75,20.41,42.56,14.09,85.4,37.25,109.76,76.2Z"/>
        <path class="cls-6" d="M381.25,143.23c.17.16.34.32.5.48.7-.24,1.41-.48,2.11-.72-.88.07-1.75.15-2.63.23,0,0,0,0,.01.01ZM467.22,144.08c.89-.12,1.79-.22,2.69-.31-6.07-1.14-12.23-1.77-18.4-1.87.18.13.36.26.54.4,5.11.07,10.25.54,15.18,1.78ZM178.06,580.6c-.61-.49-1.21-.99-1.8-1.5.01.49.03.97.05,1.46.58.02,1.16.03,1.75.04ZM464.34,633.53c-71.52-1.73-143.08-2.25-214.53-5.74-27.64-1-55.35.81-82.96-.87-18.77.53-34.33-13.47-36.35-32.07-3.76-36.51,1.87-73.37,3.56-109.91,4.61-55.68,7.88-111.46,12.29-167.16.19-17.27,5.45-35.34.96-52.26-5.36-8.85-12.93-16.15-18.24-25.04-31-57.94,49.08-92.95,92.5-108.24-1.72.6-2.76.96-4.35,1.51,65.15-20.86,133.19-36.18,201.78-37.8,65.09-5,135,13.1,163.11,77.97,23.13,52.47-8.39,84.46-23.76,131.26-9.36,32.69-5.25,67.19-6.74,100.73-2.84,60.16,7.57,120.5,1.59,180.68-3.14,43.06-54.91,47.5-88.87,46.93Z"/>
        <path class="cls-2" d="M201.56,159.46c0-5.46,4.56-10.02,10.02-10.02s10.02,4.56,10.02,10.02-4.56,10.02-10.02,10.02-10.02-4.56-10.02-10.02Z"/>
        <path class="cls-2" d="M179.75,239.65c0-9.23,7.7-16.93,16.93-16.93s16.93,7.7,16.93,16.93-7.7,16.93-16.93,16.93-16.93-7.7-16.93-16.93Z"/>
        <path class="cls-2" d="M264.13,218.42c0-1.01.84-1.86,1.86-1.86s1.86.84,1.86,1.86-.84,1.86-1.86,1.86-1.86-.84-1.86-1.86Z"/>
        <path class="cls-2" d="M261.62,220.64c0-2.97,2.48-5.45,5.45-5.45s5.45,2.48,5.45,5.45-2.48,5.45-5.45,5.45-5.45-2.48-5.45-5.45Z"/>
        <path class="cls-2" d="M148.55,498.95c0-.73.61-1.34,1.34-1.34s1.34.61,1.34,1.34-.61,1.34-1.34,1.34-1.34-.61-1.34-1.34Z"/>
        <path class="cls-2" d="M129.83,492.58c0-5,4.17-9.16,9.16-9.16s9.16,4.17,9.16,9.16-4.17,9.16-9.16,9.16-9.16-4.17-9.16-9.16Z"/>
        <path class="cls-2" d="M163.68,593.63c0-11.17,9.32-20.5,20.5-20.5s20.5,9.32,20.5,20.5-9.32,20.5-20.5,20.5-20.5-9.32-20.5-20.5Z"/>
        <path class="cls-2" d="M261.34,515.27c0-5.6,4.68-10.28,10.28-10.28s10.28,4.68,10.28,10.28-4.68,10.28-10.28,10.28-10.28-4.68-10.28-10.28Z"/>
        <path class="cls-2" d="M453.95,362.14c0-2.77,2.32-5.09,5.09-5.09s5.09,2.32,5.09,5.09-2.32,5.09-5.09,5.09-5.09-2.32-5.09-5.09Z"/>
        <path class="cls-2" d="M471,129c0-7.42,6.2-13.61,13.61-13.61s13.61,6.2,13.61,13.61-6.2,13.61-13.61,13.61-13.61-6.2-13.61-13.61Z"/>
        <path class="cls-2" d="M362.28,309.89c0-4.68,3.91-8.58,8.58-8.58s8.58,3.91,8.58,8.58-3.91,8.58-8.58,8.58-8.58-3.91-8.58-8.58Z"/>
        <path class="cls-2" d="M438.35,573.67c0-2.67,2.23-4.9,4.9-4.9s4.9,2.23,4.9,4.9-2.23,4.9-4.9,4.9-4.9-2.23-4.9-4.9Z"/>
        <path class="cls-2" d="M550.11,463.02c0-7.51,6.27-13.77,13.77-13.77s13.77,6.27,13.77,13.77-6.27,13.77-13.77,13.77-13.77-6.27-13.77-13.77Z"/>
        <path class="cls-2" d="M532.29,588.54c0-3.58,2.99-6.57,6.57-6.57s6.57,2.99,6.57,6.57-2.99,6.57-6.57,6.57-6.57-2.99-6.57-6.57Z"/>
        <path d="M264.4,424.37c-48.73-2.21-36.38-77.78,9.35-71.15,44.09,10.67,38.52,72.64-9.35,71.15Z"/>
        <path d="M432.48,430.58c-18.84-3.49-34.28-24.36-31.94-43.39,3.7-20.76,26.57-38.22,47.68-32.25,20.74,5.65,34.87,30.44,26.94,50.89-6.57,15.95-25.71,26.66-42.68,24.75Z"/>
        <path class="cls-4" d="M441.49,380.01c0-4.85,4.05-8.89,8.89-8.89s8.89,4.05,8.89,8.89-4.05,8.89-8.89,8.89-8.89-4.05-8.89-8.89Z"/>
        <path class="cls-4" d="M454.91,397.42c0-2.47,2.06-4.53,4.53-4.53s4.53,2.06,4.53,4.53-2.06,4.53-4.53,4.53-4.53-2.06-4.53-4.53Z"/>
        <path class="cls-4" d="M266.68,378.9c0-6,5.02-11.02,11.02-11.02s11.02,5.02,11.02,11.02-5.02,11.02-11.02,11.02-11.02-5.02-11.02-11.02Z"/>
        <path class="cls-4" d="M281.13,397.89c0-3.02,2.52-5.54,5.54-5.54s5.54,2.52,5.54,5.54-2.52,5.54-5.54,5.54-5.54-2.52-5.54-5.54Z"/>
        <path class="cls-7" d="M460.81,465.33c-8.02-3.99-10.88-14.58-6.24-22.19,11.49-18.24,56.6-13.03,43.53,14.26-6.4,9.64-27.99,16.32-37.29,7.93Z"/>
        <path class="cls-7" d="M213,471.42c-25.5-19.07,3.48-46.76,27.56-35.19,11.67,2.07,17.22,15.76,12.91,26.28-6.13,14.61-28.07,14.64-40.47,8.91Z"/>
        <path d="M346.68,458.43c-8.78-.95-26.53-19.36-13.15-24.63,5.39-.53,5.62,3.97,6.87,7.7,7.34,9.63,23.53,6.88,27.44-4.53,2.43-4.68,9.97-4.11,11.81.77,1.74,15.94-19.53,24.93-32.97,20.7Z"/>
      </g>
    </g>
  </g>
</svg>