<?xml version="1.0" encoding="UTF-8"?>
<svg id="Layer_2" xmlns="http://www.w3.org/2000/svg" xmlns:xlink="http://www.w3.org/1999/xlink" viewBox="0 0 691.25 737.3">
  <defs>
    <style>
      .cls-1 {
        fill: none;
      }

      .cls-2 {
        fill: #fff;
      }

      .cls-3 {
        fill: #87582b;
      }

      .cls-4 {
        fill: #d8ae74;
      }

      .cls-5 {
        fill: #eac99d;
      }

      .cls-6 {
        fill: #cba171;
      }

      .cls-7 {
        fill: #ffb4bb;
      }

      .cls-8 {
        clip-path: url(#clippath);
      }
    </style>
    <clipPath id="clippath">
      <rect class="cls-1" width="691.25" height="737.3"/>
    </clipPath>
  </defs>
  <g id="Toast">
    <g id="Perfect">
      <g class="cls-8">
        <path class="cls-3" d="M147.93,664.58c153.43-.49,307.02,2.77,459.72,18.83,8.9-97.34.43-195.4-2.2-292.89-.95-24.37-3.04-48.66-4.86-72.97-.18-13.5-5.57-28.52,2.5-40.69,10.14-16,23.98-30.01,30.81-47.9,6.31-26.18,9.93-55.16-.32-80.79-24.36-38.96-67.2-62.11-109.76-76.2-47.69-13.02-97.3-20.02-146.75-20.41-38.22.64-75.75,8.88-112.41,19.23-60.61,17.76-122.9,39.97-171.13,81.79-15.19,13.72-27.8,30.49-33.46,50.39-3.45,11.74-8.01,26.11,1.51,36.22,14.59,13.82,42.31,26.52,25.92,50.46,8.16,74.82-1.04,150.01-9.6,224.39-4.52,49.78-9.64,99.37-17.66,148.72,29.2,1.29,58.48,1.61,87.7,1.81ZM618.62,731.81c-137.39-17.35-276.26-22.34-414.67-22.12-37.69,0-75.37.2-113.05-.54-29.43-.72-90.65,3.87-71.98-43.38,36.7-121.88,51.35-253.03,26.68-378.7C.7,258.06,2.43,211.71,23.45,167.74,70.11,77.33,202.05,37.18,295.05,14.7c60.25-14.45,123.01-11.63,183.6-.63,77.04,11.63,160.7,45.59,199.05,117.59,13.31,33.47,10.22,70.63,2.86,105.13-5.46,23.1-21.19,41.5-34.55,60.47,8.56,102.15,11.37,204.74,12.32,307.23.06,30.02-.93,60.1-4.85,89.89-1.33,20.08-10.61,42.68-34.87,37.44Z"/>
        <path class="cls-3" d="M44.67,689.15c-24.5-4.39-20.53-34.78-16.41-52.99,4.92-24.84,9.36-43.52,13.27-67.14,10.44-63.46,19.13-127.47,21.73-191.78.29-32.82,5.06-66.87-1.79-99.12-2.35-6.19,3.8-12.49,9.98-10.69,13.48,7.01,17.09,24.99,21.18,38.5,9.51,33.32,10.72,68.12,11.1,102.57-1.89,74.65-10.96,149.18-26.68,222.18-6.2,20.49-1.63,60.33-32.38,58.47Z"/>
        <path class="cls-3" d="M72.65,375.26c-15.16-14.26.59-74.7-7.74-96.94-2.44-3.55-1.36-8.48,2.66-10.26,7-2.82,13.25,3.87,17.39,8.74,12.26,21.25,9.8,47.86,11.6,71.61-.66,8.48,1.6,18.97-4.85,25.62-4.93,5.08-13.52,5.64-19.06,1.22Z"/>
        <path class="cls-3" d="M70.79,430.53c.56-36.08,5.94-71.91,5.71-108.02-.02-13.39-1.08-26.73-1.7-40.09.09-5.09-2.28-15.76,5.87-14.66,6.56,2.73,7.68,11.69,10.41,17.58,17.04,46.48,12.22,96.75,9.86,145.19-.07,19.66-30.1,19.69-30.14,0Z"/>
        <path class="cls-4" d="M633.58,148.18c10.25,25.62,6.63,54.61.32,80.79-6.83,17.88-20.67,31.9-30.81,47.89-8.07,12.17-2.68,27.19-2.5,40.69,1.82,24.31,3.91,48.6,4.86,72.97,2.64,97.49,11.1,195.56,2.2,292.89-152.71-16.05-306.29-19.32-459.72-18.82-25.53-.18-51.1-.44-76.62-1.37,2.39-11.17,3.05-23.67,5.74-32.54,15.72-72.99,24.8-147.53,26.68-222.18-.09-8.54-.24-17.1-.55-25.66.94-33.08-.61-66.16-12.1-97.52-.17-.37-.34-.76-.5-1.15,9-20.48-15.57-32.25-29.01-44.98-9.51-10.11-4.95-24.48-1.5-36.22,5.66-19.9,18.28-36.67,33.46-50.39,48.23-41.82,110.52-64.02,171.13-81.79,36.66-10.35,74.18-18.59,112.41-19.23,49.45.39,99.06,7.39,146.75,20.41,42.56,14.09,85.4,37.25,109.76,76.2Z"/>
        <path class="cls-5" d="M520.78,201.4c-.21-.36-.41-.71-.62-1.07.01.22.03.45.04.67.19.13.39.26.58.4ZM210.15,560.56c-.52-.89-.99-1.81-1.42-2.75-.09.69-.18,1.39-.27,2.08-.03.2-.05.4-.08.59.59.03,1.18.05,1.77.07ZM298.05,625.71c-21.19-.7-42.37-1.78-63.57-.62-29.63-.67-69.76,5.93-88.03-23.27-12.81-28.42,3.47-69.03,6.21-99.34,12.36-74.49,4.99-149.92,3.03-224.86-22.95-16.53-23.66-49.44-14.82-73.94,4.9-16.85,18.42-28.45,30.29-40.51,32.91-33.43,78.69-46.84,122.67-59.04,57.57-14.34,121.86-22.45,176.43,5.77,49.07,14.79,122.55,43.86,112.31,106.97-1.96,10.88-5.7,21.36-10.75,31.18-3.18,29.96-11.79,59.12-10.78,89.5,1.87,48.74,5.94,97.49,9.37,146.09,2.68,41.83,17.6,115.73-31.69,135.01-49.55,4.65-99.99.07-149.87,3.06-30.37,1.07-60.4,5.12-90.81,4.01Z"/>
        <path class="cls-6" d="M185.93,251.1c0-3.59,2.99-6.58,6.58-6.58s6.58,2.99,6.58,6.58-2.99,6.58-6.58,6.58-6.58-2.99-6.58-6.58Z"/>
        <path class="cls-6" d="M204.6,178.73c0-7.45,6.22-13.66,13.66-13.66s13.66,6.22,13.66,13.66-6.22,13.66-13.66,13.66-13.66-6.22-13.66-13.66Z"/>
        <path class="cls-6" d="M256.97,257.26c0-5.5,4.59-10.1,10.1-10.1s10.1,4.59,10.1,10.1-4.59,10.1-10.1,10.1-10.1-4.59-10.1-10.1Z"/>
        <path class="cls-6" d="M143.2,493.48c0-11.26,9.4-20.66,20.66-20.66s20.66,9.4,20.66,20.66-9.4,20.66-20.66,20.66-20.66-9.4-20.66-20.66Z"/>
        <path class="cls-6" d="M236.05,531.76c0-3.27,2.73-5.99,5.99-5.99s5.99,2.73,5.99,5.99-2.73,5.99-5.99,5.99-5.99-2.73-5.99-5.99Z"/>
        <path class="cls-6" d="M236.06,423.84c0-6.82,5.7-12.52,12.52-12.52s12.52,5.7,12.52,12.52-5.7,12.52-12.52,12.52-12.52-5.7-12.52-12.52Z"/>
        <path class="cls-6" d="M425.73,632.46c0-6.09,5.08-11.17,11.17-11.17s11.17,5.08,11.17,11.17-5.08,11.17-11.17,11.17-11.17-5.08-11.17-11.17Z"/>
        <path class="cls-6" d="M202.44,631.01c0-2.79,2.33-5.12,5.12-5.12s5.12,2.33,5.12,5.12-2.33,5.12-5.12,5.12-5.12-2.33-5.12-5.12Z"/>
        <path class="cls-6" d="M479.81,371.03c0-9.74,8.13-17.88,17.88-17.88s17.88,8.13,17.88,17.88-8.13,17.88-17.88,17.88-17.88-8.13-17.88-17.88Z"/>
        <path class="cls-6" d="M402.41,486.22c0-4.46,3.72-8.18,8.18-8.18s8.18,3.72,8.18,8.18-3.72,8.18-8.18,8.18-8.18-3.72-8.18-8.18Z"/>
        <path class="cls-6" d="M432.64,268.88c0-.73.61-1.34,1.34-1.34s1.34.61,1.34,1.34-.61,1.34-1.34,1.34-1.34-.61-1.34-1.34Z"/>
        <path class="cls-6" d="M402.36,110.84c0-7.46,6.23-13.68,13.68-13.68s13.68,6.23,13.68,13.68-6.23,13.68-13.68,13.68-13.68-6.23-13.68-13.68Z"/>
        <path class="cls-6" d="M427.11,243.11c0-6.33,5.29-11.62,11.62-11.62s11.62,5.29,11.62,11.62-5.29,11.62-11.62,11.62-11.62-5.29-11.62-11.62Z"/>
        <path class="cls-6" d="M196.21,179.07c0-8.46,7.06-15.52,15.52-15.52s15.52,7.06,15.52,15.52-7.06,15.52-15.52,15.52-15.52-7.06-15.52-15.52Z"/>
        <path class="cls-6" d="M207.64,187.85c-11.85-3.22-6.63-19.47,4.65-16.87,11.03,3.48,6.62,19.5-4.65,16.87Z"/>
        <path class="cls-6" d="M489.24,165.48c0-2.71,2.27-4.98,4.98-4.98s4.98,2.27,4.98,4.98-2.27,4.98-4.98,4.98-4.98-2.27-4.98-4.98Z"/>
        <path class="cls-6" d="M590.26,163.3c0-3.12,2.61-5.73,5.73-5.73s5.73,2.61,5.73,5.73-2.61,5.73-5.73,5.73-5.73-2.61-5.73-5.73Z"/>
        <path class="cls-6" d="M537.3,565.9c0-2.53,2.11-4.64,4.64-4.64s4.64,2.11,4.64,4.64-2.11,4.64-4.64,4.64-4.64-2.11-4.64-4.64Z"/>
        <path class="cls-6" d="M399.74,580.38c0-9.67,8.07-17.74,17.74-17.74s17.74,8.07,17.74,17.74-8.07,17.74-17.74,17.74-17.74-8.07-17.74-17.74Z"/>
        <path d="M264.4,424.37c-48.73-2.21-36.38-77.78,9.35-71.15,44.09,10.67,38.52,72.64-9.35,71.15Z"/>
        <path d="M432.48,430.58c-18.84-3.49-34.28-24.36-31.94-43.39,3.7-20.76,26.57-38.22,47.68-32.25,20.74,5.65,34.87,30.44,26.94,50.89-6.57,15.95-25.71,26.66-42.68,24.75Z"/>
        <path d="M344.03,460.43c-10.64-1.39-21.8-7.1-24.73-18.18-2.02-3.66-3.85-10.64,1.66-12.09,3.21-2.14,7.62-1.3,10.18,1.48,3.91,1.15,7.98,1.58,12.03,1.94,4.59.09,9.23-.07,13.77-.82,4.5-.91,8.79-3.31,13.48-2.76,7.78,1.07,8.62,10.85,4.82,16.34-5.78,10.94-19.3,16.25-31.21,14.09Z"/>
        <path class="cls-2" d="M441.49,380.01c0-4.85,4.05-8.89,8.89-8.89s8.89,4.05,8.89,8.89-4.05,8.89-8.89,8.89-8.89-4.05-8.89-8.89Z"/>
        <path class="cls-2" d="M454.91,397.42c0-2.47,2.06-4.53,4.53-4.53s4.53,2.06,4.53,4.53-2.06,4.53-4.53,4.53-4.53-2.06-4.53-4.53Z"/>
        <path class="cls-2" d="M266.68,378.9c0-6,5.02-11.02,11.02-11.02s11.02,5.02,11.02,11.02-5.02,11.02-11.02,11.02-11.02-5.02-11.02-11.02Z"/>
        <path class="cls-2" d="M281.13,397.89c0-3.02,2.52-5.54,5.54-5.54s5.54,2.52,5.54,5.54-2.52,5.54-5.54,5.54-5.54-2.52-5.54-5.54Z"/>
        <path class="cls-7" d="M460.81,465.33c-8.02-3.99-10.88-14.58-6.24-22.19,11.49-18.24,56.6-13.03,43.53,14.26-6.4,9.64-27.99,16.32-37.29,7.93Z"/>
        <path class="cls-7" d="M213,471.42c-25.5-19.07,3.48-46.76,27.56-35.19,11.67,2.07,17.22,15.76,12.91,26.28-6.13,14.61-28.07,14.64-40.47,8.91Z"/>
      </g>
    </g>
  </g>
</svg>