<?xml version="1.0" encoding="UTF-8"?>
<svg id="Layer_1" data-name="Layer 1" xmlns="http://www.w3.org/2000/svg" viewBox="0 0 263.79 263.79">
  <defs>
    <style>
      .cls-1 {
        fill: #7a9cff;
      }

      .cls-2 {
        fill: none;
        stroke: #aec3ff;
        stroke-miterlimit: 10;
        stroke-width: 8px;
      }
    </style>
  </defs>
  <path class="cls-1" d="M131.89,29.89c-56.33,0-102,45.67-102,102s45.67,102,102,102,102-45.67,102-102S188.23,29.89,131.89,29.89ZM150.92,168.49c-20.34,11.74-46.35,4.77-58.1-15.57-11.74-20.34-4.77-46.35,15.57-58.1,20.34-11.74,46.35-4.77,58.1,15.57,11.74,20.34,4.77,46.35-15.57,58.1Z"/>
  <polygon class="cls-1" points="109.89 32.89 117.89 0 141.89 0 149.89 32.89 109.89 32.89"/>
  <polygon class="cls-1" points="63.34 57.16 53.82 24.67 74.61 12.67 97.98 37.16 63.34 57.16"/>
  <polygon class="cls-1" points="35.16 101.45 10.67 78.07 22.67 57.29 55.16 66.81 35.16 101.45"/>
  <polygon class="cls-1" points="32.89 153.89 0 145.89 0 121.89 32.89 113.89 32.89 153.89"/>
  <polygon class="cls-1" points="57.16 200.45 24.67 209.97 12.67 189.18 37.16 165.81 57.16 200.45"/>
  <polygon class="cls-1" points="101.45 228.63 78.07 253.12 57.29 241.12 66.81 208.63 101.45 228.63"/>
  <polygon class="cls-1" points="153.89 230.89 145.89 263.79 121.89 263.79 113.89 230.89 153.89 230.89"/>
  <polygon class="cls-1" points="200.45 206.63 209.97 239.12 189.18 251.12 165.81 226.63 200.45 206.63"/>
  <polygon class="cls-1" points="228.63 162.34 253.12 185.72 241.12 206.5 208.63 196.98 228.63 162.34"/>
  <polygon class="cls-1" points="230.89 109.89 263.79 117.89 263.79 141.89 230.89 149.89 230.89 109.89"/>
  <polygon class="cls-1" points="206.63 63.34 239.12 53.82 251.12 74.61 226.63 97.98 206.63 63.34"/>
  <polygon class="cls-1" points="162.34 35.16 185.72 10.67 206.5 22.67 196.98 55.16 162.34 35.16"/>
  <circle class="cls-2" cx="129.89" cy="131.89" r="60"/>
</svg>