<?xml version="1.0" encoding="UTF-8"?>
<svg id="Layer_1" xmlns="http://www.w3.org/2000/svg" viewBox="0 0 284 284">
  <defs>
    <style>
      .cls-1 {
        fill: none;
        stroke: #aec3ff;
        stroke-miterlimit: 10;
        stroke-width: 8px;
      }

      .cls-2 {
        fill: #7a9cff;
      }
    </style>
  </defs>
  <path class="cls-2" d="M145,40c-56.3,0-102,45.7-102,102s45.7,102,102,102,102-45.7,102-102-45.7-102-102-102ZM163.25,178.85c-20.3,11.7-46.3,4.8-58.1-15.6-11.7-20.3-4.8-46.3,15.6-58.1,20.3-11.7,46.4-4.8,58.1,15.6,11.7,20.3,4.8,46.4-15.6,58.1Z"/>
  <polygon class="cls-2" points="110 52 122.7 0 160.6 0 173.2 52 110 52"/>
  <polygon class="cls-2" points="55.7 101 27.9 55.3 54.7 28.5 100.4 56.3 55.7 101"/>
  <polygon class="cls-2" points="52 174 0 161.4 0 123.4 52 110.8 52 174"/>
  <polygon class="cls-2" points="101 228.3 55.3 256.1 28.5 229.3 56.3 183.6 101 228.3"/>
  <polygon class="cls-2" points="174 232 161.4 284 123.4 284 110.8 232 174 232"/>
  <polygon class="cls-2" points="228.3 183 256.1 228.7 229.3 255.6 183.6 227.7 228.3 183"/>
  <polygon class="cls-2" points="232 110 284 122.7 284 160.6 232 173.2 232 110"/>
  <polygon class="cls-2" points="183 55.7 228.7 27.9 255.6 54.7 227.7 100.4 183 55.7"/>
  <circle class="cls-1" cx="142" cy="142" r="60"/>
</svg>