<?xml version="1.0" encoding="UTF-8"?>
<svg id="Layer_1" data-name="Layer 1" xmlns="http://www.w3.org/2000/svg" viewBox="0 0 284 284">
  <defs>
    <style>
      .cls-1 {
        fill: #7a9cff;
      }

      .cls-2 {
        fill: none;
        stroke: #aec3ff;
        stroke-miterlimit: 10;
        stroke-width: 8px;
      }
    </style>
  </defs>
  <path class="cls-1" d="M145,40c-56.33,0-102,45.67-102,102s45.67,102,102,102,102-45.67,102-102-45.67-102-102-102ZM164.03,178.59c-20.34,11.74-46.35,4.77-58.1-15.57-11.74-20.34-4.77-46.35,15.57-58.1,20.34-11.74,46.35-4.77,58.1,15.57,11.74,20.34,4.77,46.35-15.57,58.1Z"/>
  <polygon class="cls-1" points="110 52 122.65 0 160.59 0 173.23 52 110 52"/>
  <polygon class="cls-1" points="55.73 100.99 27.91 55.28 54.73 28.45 100.45 56.27 55.73 100.99"/>
  <polygon class="cls-1" points="52 174 0 161.35 0 123.41 52 110.77 52 174"/>
  <polygon class="cls-1" points="100.99 228.27 55.28 256.09 28.45 229.27 56.27 183.55 100.99 228.27"/>
  <polygon class="cls-1" points="174 232 161.35 284 123.41 284 110.77 232 174 232"/>
  <polygon class="cls-1" points="228.27 183.01 256.09 228.72 229.27 255.55 183.55 227.73 228.27 183.01"/>
  <polygon class="cls-1" points="232 110 284 122.65 284 160.59 232 173.23 232 110"/>
  <polygon class="cls-1" points="183.01 55.73 228.72 27.91 255.55 54.73 227.73 100.45 183.01 55.73"/>
  <circle class="cls-2" cx="142" cy="142.5" r="60"/>
</svg>