<?xml version="1.0" encoding="UTF-8"?>
<svg xmlns="http://www.w3.org/2000/svg" viewBox="0 0 315.83 318.35">
  <defs>
    <style>
      .cls-1 {
        fill: #ffaaa7;
      }

      .cls-2 {
        font-family: MLingWaiMedium-TC-B5pc-H, 'LingWai TC';
        font-size: 40.98px;
      }

      .cls-3 {
        fill: #ed1c24;
      }

      .cls-4 {
        stroke: #666;
        stroke-linecap: round;
        stroke-miterlimit: 10;
        stroke-width: 10px;
      }

      .cls-4, .cls-5 {
        fill: #c1272d;
      }

      .cls-6 {
        fill: #ffd56a;
      }

      .cls-7 {
        fill: #fff0a7;
      }
    </style>
  </defs>
  <g id="Note">
    <path class="cls-7" d="M0,80.58c81.29-8.9,233.09-47.81,233.09-47.81,0,0,52.52,221.91,82.73,254.64-130.91,26.98-160.43,42.09-214.39,18.35C31.57,275.01,5.76,109,0,80.58"/>
    <path class="cls-6" d="M54.45,257.89c14.05,27.63,57.22,68.01,111.15,59.23-9.3,1.05-48.67-4.94-37.55-59.23-28.78,22.68-58.12,21.9-73.6,0Z"/>
    <text class="cls-2" transform="translate(60.13 214.41) rotate(-10.83)"><tspan x="0" y="0">Hover over us!</tspan></text>
  </g>
  <g id="Pin">
    <line class="cls-4" x1="166.64" y1="43.33" x2="127.6" y2="110.07"/>
    <circle class="cls-5" cx="171.24" cy="32.37" r="32.37"/>
    <circle class="cls-3" cx="167.63" cy="26.61" r="23.38"/>
    <circle class="cls-1" cx="161.25" cy="18.38" r="5.39"/>
  </g>
</svg>